<svg width="64" height="64" viewBox="0 0 64 64" fill="none" xmlns="http://www.w3.org/2000/svg">
<g id="MC-Logo">
<path id="LogoC" d="M55.7764 39.7254C53.937 45.3867 50.1379 50.2058 45.0625 53.316C39.9871 56.4262 33.9684 57.6234 28.0891 56.6922C22.2098 55.761 16.8557 52.7626 12.9899 48.2362C9.12396 43.7098 7 37.9526 7 32C7 26.0474 9.12396 20.2902 12.9898 15.7638C16.8557 11.2374 22.2098 8.23898 28.0891 7.30779C33.9684 6.3766 39.987 7.57378 45.0625 10.684C50.1379 13.7942 53.937 18.6133 55.7764 24.2746L49.8323 26.2059C48.4527 21.96 45.6034 18.3457 41.7968 16.013C37.9903 13.6803 33.4763 12.7825 29.0668 13.4808C24.6574 14.1792 20.6418 16.4281 17.7424 19.8229C14.843 23.2176 13.25 27.5356 13.25 32C13.25 36.4644 14.843 40.7824 17.7424 44.1772C20.6418 47.5719 24.6574 49.8208 29.0669 50.5192C33.4763 51.2175 37.9903 50.3197 41.7968 47.987C45.6034 45.6543 48.4527 42.04 49.8323 37.7941L55.7764 39.7254Z" fill="url(#paint0_linear_6_2)"/>
<path id="LogoM" fill-rule="evenodd" clip-rule="evenodd" d="M37.8969 17L31.9998 28.5392L26.1028 17.0001C24.7185 17.633 23.4207 18.4898 22.2583 19.5513C19.5425 22.0314 17.7434 25.4662 17.1847 29.2379C16.626 33.0096 17.3443 36.8708 19.2104 40.1268C21.0765 43.3828 23.968 45.82 27.3648 47.0001L29.2189 40.8988C27.1808 40.1907 25.4459 38.7284 24.3263 36.7748C23.2066 34.8212 22.7756 32.5045 23.1108 30.2415C23.3981 28.3023 24.2317 26.5116 25.4897 25.1026L31.9998 37.8414L38.5101 25.1023C39.7682 26.5114 40.6019 28.3022 40.8892 30.2415C41.2244 32.5045 40.7934 34.8212 39.6737 36.7748C38.5541 38.7284 36.8192 40.1907 34.7811 40.8988L36.6352 47.0001C40.032 45.82 42.9234 43.3828 44.7896 40.1268C46.6557 36.8708 47.374 33.0096 46.8153 29.2379C46.2566 25.4662 44.4575 22.0314 41.7417 19.5513C40.5792 18.4897 39.2814 17.6329 37.8969 17Z" fill="url(#paint1_linear_6_2)"/>
</g>
<defs>
<linearGradient id="paint0_linear_6_2" x1="48.9" y1="14.2" x2="15.1" y2="50.1" gradientUnits="userSpaceOnUse">
<stop offset="0.0677083"/>
<stop offset="1" stop-opacity="0.24"/>
</linearGradient>
<linearGradient id="paint1_linear_6_2" x1="22.4" y1="46.2964" x2="48.6791" y2="21.2189" gradientUnits="userSpaceOnUse">
<stop/>
<stop offset="1" stop-opacity="0"/>
</linearGradient>
</defs>
</svg>
