<svg width="500" height="500" viewBox="0 0 500 500" fill="none" xmlns="http://www.w3.org/2000/svg">
<rect width="500" height="500" fill="#1E1E1E"/>
<g clip-path="url(#clip0_0_1)">
<path fill-rule="evenodd" clip-rule="evenodd" d="M380.475 467.588C433.307 438.277 473.74 391.441 494.501 335.505L422.632 309.853C408.099 349.009 379.797 381.794 342.814 402.312C305.832 422.83 262.597 429.735 220.887 421.784C179.177 413.834 141.728 391.55 115.276 358.94C88.8252 326.33 75.1073 285.535 76.5902 243.893C78.0731 202.25 94.6595 162.493 123.366 131.772C152.073 101.051 191.015 81.3829 233.19 76.3048C275.364 71.2267 318.002 81.0722 353.435 104.07C388.867 127.068 414.769 161.71 426.481 201.764L500 181.091C483.268 123.871 446.266 74.3834 395.648 41.529C345.029 8.67457 284.118 -5.39037 223.869 1.86399C163.62 9.11835 107.987 37.2159 66.9781 81.1028C25.9687 124.99 2.27386 181.786 0.15541 241.275C-1.96304 300.765 17.634 359.043 55.4215 405.628C93.2091 452.214 146.707 484.048 206.294 495.406C265.88 506.764 327.644 496.9 380.475 467.588ZM259.187 210.131L303.209 116.667C317.844 121.114 331.78 127.78 344.486 136.505C370.211 154.169 389.574 179.366 399.799 208.486C410.023 237.605 410.585 269.15 401.403 298.602C392.221 328.053 373.766 353.898 348.685 372.432L310.201 322.351C324.497 311.786 335.016 297.055 340.25 280.267C345.484 263.48 345.164 245.499 339.336 228.901C333.619 212.622 322.892 198.492 308.646 188.456L259.187 293.464L209.728 188.456C209.206 188.824 208.687 189.198 208.173 189.578C193.877 200.142 183.358 214.874 178.124 231.661C172.89 248.448 173.21 266.429 179.038 283.027C184.866 299.625 195.903 313.987 210.567 324.056L173.888 375.424C148.163 357.759 128.8 332.562 118.575 303.443C108.351 274.324 107.789 242.778 116.971 213.327C126.153 183.875 144.607 158.031 169.689 139.497C183.476 129.309 198.876 121.617 215.165 116.667L259.187 210.131Z" fill="url(#paint0_linear_0_1)"/>
</g>
<defs>
<linearGradient id="paint0_linear_0_1" x1="76.4815" y1="416.666" x2="553.457" y2="28.4017" gradientUnits="userSpaceOnUse">
<stop stop-color="#0F33EE"/>
<stop offset="0.28125" stop-color="#0629DC"/>
<stop offset="0.583333" stop-color="#4392EF"/>
<stop offset="0.796875" stop-color="#8E9DEC" stop-opacity="0.97"/>
<stop offset="0.9997" stop-color="#3352F1" stop-opacity="0.48"/>
<stop offset="0.9998" stop-color="#C5CCEE"/>
</linearGradient>
<clipPath id="clip0_0_1">
<rect width="500" height="500" fill="white"/>
</clipPath>
</defs>
</svg>
